Sumana-Regular.ufo
<glyph name="parenright" format="1">
  <advance width="305"/>
  <unicode hex="0029"/>
  <outline>
    <contour>
      <point x="11" y="738" type="line"/>
      <point x="116" y="600"/>
      <point x="164" y="439"/>
      <point x="164" y="250" type="curve"/>
      <point x="164" y="61"/>
      <point x="116" y="-112"/>
      <point x="11" y="-249" type="curve"/>
      <point x="43" y="-279" type="line"/>
      <point x="143" y="-189"/>
      <point x="275" y="23"/>
      <point x="275" y="250" type="curve"/>
      <point x="275" y="477"/>
      <point x="143" y="678"/>
      <point x="43" y="768" type="curve"/>
    </contour>
  </outline>
</glyph>
<glyph name="comma" format="1">
  <advance width="253"/>
  <unicode hex="002C"/>
  <outline>
    <contour>
      <point x="89" y="107"/>
      <point x="61" y="83"/>
      <point x="61" y="43" type="curve"/>
      <point x="61" y="4"/>
      <point x="93" y="-22"/>
      <point x="133" y="-8" type="curve"/>
      <point x="137" y="-69"/>
      <point x="104" y="-137"/>
      <point x="83" y="-160" type="curve"/>
      <point x="118" y="-186" type="line"/>
      <point x="165" y="-142"/>
      <point x="197" y="-43"/>
      <point x="197" y="10" type="curve"/>
      <point x="197" y="63"/>
      <point x="169" y="107"/>
      <point x="121" y="107" type="curve"/>
    </contour>
  </outline>
</glyph>
<glyph name="question" format="1">
  <advance width="474"/>
  <unicode hex="003F"/>
  <outline>
    <contour>
      <point x="107" y="722"/>
      <point x="28" y="638"/>
      <point x="28" y="577" type="curve"/>
      <point x="28" y="546"/>
      <point x="44" y="520"/>
      <point x="76" y="518" type="curve"/>
      <point x="111" y="517"/>
      <point x="127" y="548"/>
      <point x="127" y="567" type="curve"/>
      <point x="127" y="582"/>
      <point x="122" y="596"/>
      <point x="115" y="607" type="curve"/>
      <point x="122" y="636"/>
      <point x="166" y="671"/>
      <point x="220" y="671" type="curve"/>
      <point x="311" y="671"/>
      <point x="339" y="615"/>
      <point x="337" y="544" type="curve"/>
      <point x="332" y="397"/>
      <point x="141" y="350"/>
      <point x="141" y="255" type="curve"/>
      <point x="141" y="202"/>
      <point x="186" y="182"/>
      <point x="226" y="182" type="curve"/>
      <point x="252" y="182"/>
      <point x="289" y="189"/>
      <point x="310" y="203" type="curve"/>
      <point x="295" y="249" type="line"/>
      <point x="283" y="242"/>
      <point x="266" y="240"/>
      <point x="255" y="240" type="curve"/>
      <point x="227" y="240"/>
      <point x="218" y="253"/>
      <point x="218" y="267" type="curve"/>
      <point x="218" y="329"/>
      <point x="433" y="401"/>
      <point x="442" y="542" type="curve"/>
      <point x="446" y="627"/>
      <point x="393" y="722"/>
      <point x="235" y="722" type="curve"/>
    </contour>
    <contour>
      <point x="203" y="108"/>
      <point x="173" y="78"/>
      <point x="173" y="43" type="curve"/>
      <point x="173" y="3"/>
      <point x="203" y="-22"/>
      <point x="232" y="-22" type="curve"/>
      <point x="265" y="-22"/>
      <point x="291" y="7"/>
      <point x="291" y="43" type="curve"/>
      <point x="291" y="78"/>
      <point x="264" y="108"/>
      <point x="232" y="108" type="curve"/>
    </contour>
  </outline>
</glyph>
<glyph name="A" format="1">
  <advance width="626"/>
  <unicode hex="0041"/>
  <outline>
    <contour>
      <point x="291" y="721" type="line"/>
      <point x="84" y="161" type="line"/>
      <point x="55" y="84"/>
      <point x="47" y="35"/>
      <point x="-10" y="37" type="curve"/>
      <point x="-13" y="37" type="line"/>
      <point x="-13" y="0" type="line"/>
      <point x="188" y="0" type="line"/>
      <point x="188" y="48" type="line"/>
      <point x="108" y="44" type="line"/>
      <point x="111" y="44" type="line"/>
      <point x="120" y="66"/>
      <point x="126" y="81"/>
      <point x="135" y="110" type="curve"/>
      <point x="145" y="143"/>
      <point x="155" y="177"/>
      <point x="169" y="214" type="curve"/>
      <point x="166" y="214" type="line"/>
      <point x="417" y="220" type="line"/>
      <point x="451" y="129" type="line"/>
      <point x="465" y="93"/>
      <point x="477" y="37"/>
      <point x="405" y="37" type="curve"/>
      <point x="402" y="37" type="line"/>
      <point x="402" y="0" type="line"/>
      <point x="645" y="0" type="line"/>
      <point x="645" y="48" type="line"/>
      <point x="574" y="44" type="line"/>
      <point x="577" y="44" type="line"/>
      <point x="578" y="74"/>
      <point x="562" y="124"/>
      <point x="551" y="153" type="curve"/>
      <point x="327" y="721" type="line"/>
    </contour>
    <contour>
      <point x="331" y="449" type="line"/>
      <point x="401" y="261" type="line"/>
      <point x="183" y="261" type="line"/>
      <point x="186" y="261" type="line"/>
      <point x="204" y="313"/>
      <point x="226" y="376"/>
      <point x="256" y="459" type="curve"/>
      <point x="297" y="571" type="line"/>
      <point x="287" y="571" type="line"/>
    </contour>
    <contour>
      <point x="563" y="-0" type="move" name="ogonek"/>
    </contour>
    <contour>
      <point x="313" y="700" type="move" name="top"/>
    </contour>
  </outline>
</glyph>
<glyph name="Q" format="1">
  <advance width="796"/>
  <unicode hex="0051"/>
  <outline>
    <contour>
      <point x="401" y="-3" type="curve"/>
      <point x="392" y="-16" type="line"/>
      <point x="454" y="-12"/>
      <point x="485" y="-78"/>
      <point x="580" y="-163" type="curve"/>
      <point x="643" y="-220"/>
      <point x="682" y="-220"/>
      <point x="754" y="-220" type="curve"/>
      <point x="793" y="-220" type="line"/>
      <point x="793" y="-183" type="line"/>
      <point x="751" y="-183"/>
      <point x="733" y="-164"/>
      <point x="631" y="-70" type="curve"/>
      <point x="542" y="13"/>
      <point x="504" y="-7"/>
    </contour>
    <component base="O"/>
  </outline>
</glyph>
<glyph name="ka-deva" format="1">
  <advance width="728"/>
  <unicode hex="0915"/>
  <note>
    dKa
  </note>
  <outline>
    <contour>
      <point x="662" y="100"/>
      <point x="701" y="180"/>
      <point x="701" y="264" type="curve" smooth="yes"/>
      <point x="701" y="374"/>
      <point x="641" y="425"/>
      <point x="571" y="425" type="curve" smooth="yes"/>
      <point x="514" y="425"/>
      <point x="449" y="391"/>
      <point x="405" y="326" type="curve"/>
      <point x="405" y="244" type="line"/>
      <point x="471" y="332"/>
      <point x="540" y="365"/>
      <point x="588" y="365" type="curve" smooth="yes"/>
      <point x="624" y="365"/>
      <point x="648" y="341"/>
      <point x="648" y="290" type="curve" smooth="yes"/>
      <point x="648" y="247"/>
      <point x="618" y="171"/>
      <point x="545" y="127" type="curve"/>
      <point x="593" y="56" type="line"/>
    </contour>
    <contour>
      <point x="325" y="421"/>
      <point x="273" y="443"/>
      <point x="204" y="443" type="curve" smooth="yes"/>
      <point x="113" y="443"/>
      <point x="44" y="396"/>
      <point x="44" y="291" type="curve" smooth="yes"/>
      <point x="44" y="192"/>
      <point x="115" y="115"/>
      <point x="199" y="115" type="curve" smooth="yes"/>
      <point x="270" y="115"/>
      <point x="351" y="160"/>
      <point x="405" y="249" type="curve"/>
      <point x="405" y="342" type="line"/>
      <point x="361" y="246"/>
      <point x="262" y="181"/>
      <point x="190" y="181" type="curve" smooth="yes"/>
      <point x="134" y="181"/>
      <point x="96" y="202"/>
      <point x="96" y="266" type="curve" smooth="yes"/>
      <point x="96" y="337"/>
      <point x="148" y="368"/>
      <point x="208" y="368" type="curve" smooth="yes"/>
      <point x="269" y="368"/>
      <point x="319" y="352"/>
      <point x="369" y="319" type="curve"/>
      <point x="381" y="379" type="line"/>
    </contour>
    <component base="headline-deva"/>
    <component base="stem-deva"/>
    <contour>
      <point x="79" y="0" type="move" name="nukta"/>
    </contour>
    <contour>
      <point x="382" y="0" type="move" name="bottom"/>
    </contour>
    <contour>
      <point x="388" y="570" type="move" name="top"/>
    </contour>
  </outline>
</glyph>
<glyph name="ga-deva" format="1">
  <advance width="524"/>
  <unicode hex="0917"/>
  <note>
    dGa
  </note>
  <outline>
    <contour>
      <point x="-30" y="570" type="line"/>
      <point x="-2" y="506" type="line"/>
      <point x="554" y="506" type="line"/>
      <point x="526" y="570" type="line"/>
    </contour>
    <contour>
      <point x="96" y="517" type="line"/>
      <point x="133" y="473"/>
      <point x="158" y="391"/>
      <point x="158" y="323" type="curve" smooth="yes"/>
      <point x="158" y="275"/>
      <point x="146" y="234"/>
      <point x="118" y="214" type="curve"/>
      <point x="62" y="220"/>
      <point x="37" y="205"/>
      <point x="37" y="174" type="curve" smooth="yes"/>
      <point x="37" y="125"/>
      <point x="72" y="82"/>
      <point x="123" y="82" type="curve" smooth="yes"/>
      <point x="198" y="82"/>
      <point x="227" y="182"/>
      <point x="227" y="293" type="curve" smooth="yes"/>
      <point x="227" y="377"/>
      <point x="207" y="466"/>
      <point x="173" y="523" type="curve"/>
    </contour>
    <component base="stem-deva"/>
    <contour>
      <point x="129" y="0" type="move" name="nukta"/>
    </contour>
    <contour>
      <point x="386" y="0" type="move" name="bottom"/>
    </contour>
    <contour>
      <point x="406" y="570" type="move" name="top"/>
    </contour>
  </outline>
</glyph>
<glyph name="ja-deva" format="1">
  <advance width="667"/>
  <unicode hex="091C"/>
  <note>
    dJa
  </note>
  <outline>
    <contour>
      <point x="510" y="326" type="line"/>
      <point x="172" y="326" type="line"/>
      <point x="179" y="283" type="line"/>
      <point x="271" y="242"/>
      <point x="327" y="165"/>
      <point x="327" y="111" type="curve" smooth="yes"/>
      <point x="327" y="76"/>
      <point x="316" y="53"/>
      <point x="265" y="53" type="curve" smooth="yes"/>
      <point x="195" y="53"/>
      <point x="111" y="106"/>
      <point x="43" y="215" type="curve"/>
      <point x="10" y="193" type="line"/>
      <point x="76" y="56"/>
      <point x="191" y="-25"/>
      <point x="283" y="-25" type="curve" smooth="yes"/>
      <point x="381" y="-25"/>
      <point x="435" y="18"/>
      <point x="435" y="87" type="curve" smooth="yes"/>
      <point x="435" y="154"/>
      <point x="381" y="273"/>
      <point x="238" y="305" type="curve"/>
      <point x="276" y="271" type="line"/>
      <point x="510" y="258" type="line"/>
    </contour>
    <contour>
      <point x="697" y="506" type="line"/>
      <point x="669" y="570" type="line"/>
      <point x="-30" y="570" type="line"/>
      <point x="-2" y="506" type="line"/>
    </contour>
    <component base="stem-deva" xOffset="146"/>
    <contour>
      <point x="399" y="-34" type="move" name="nukta"/>
    </contour>
    <contour>
      <point x="532" y="0" type="move" name="bottom"/>
    </contour>
    <contour>
      <point x="535" y="570" type="move" name="top"/>
    </contour>
  </outline>
</glyph>
<glyph name="ddha-deva" format="1">
  <advance width="529"/>
  <unicode hex="0922"/>
  <note>
    dDdha
  </note>
  <outline>
    <contour>
      <point x="336" y="395" type="line"/>
      <point x="251" y="395" type="line" smooth="yes"/>
      <point x="142" y="395"/>
      <point x="58" y="324"/>
      <point x="58" y="218" type="curve" smooth="yes"/>
      <point x="58" y="118"/>
      <point x="143" y="-9"/>
      <point x="309" y="-7" type="curve" smooth="yes"/>
      <point x="399" y="-6"/>
      <point x="471" y="38"/>
      <point x="471" y="118" type="curve" smooth="yes"/>
      <point x="471" y="197"/>
      <point x="414" y="279"/>
      <point x="323" y="278" type="curve" smooth="yes"/>
      <point x="245" y="277"/>
      <point x="208" y="229"/>
      <point x="208" y="173" type="curve" smooth="yes"/>
      <point x="208" y="120"/>
      <point x="248" y="59"/>
      <point x="327" y="27" type="curve"/>
      <point x="364" y="38" type="line"/>
      <point x="314" y="71"/>
      <point x="283" y="100"/>
      <point x="283" y="147" type="curve" smooth="yes"/>
      <point x="283" y="183"/>
      <point x="309" y="215"/>
      <point x="348" y="214" type="curve" smooth="yes"/>
      <point x="390" y="213"/>
      <point x="414" y="184"/>
      <point x="414" y="149" type="curve" smooth="yes"/>
      <point x="414" y="91"/>
      <point x="370" y="49"/>
      <point x="289" y="49" type="curve" smooth="yes"/>
      <point x="202" y="49"/>
      <point x="128" y="87"/>
      <point x="128" y="185" type="curve" smooth="yes"/>
      <point x="128" y="261"/>
      <point x="177" y="326"/>
      <point x="290" y="331" type="curve" smooth="yes"/>
      <point x="415" y="337" type="line"/>
      <point x="415" y="413" type="line"/>
    </contour>
    <contour>
      <point x="-30" y="570" type="line"/>
      <point x="-2" y="506" type="line"/>
      <point x="559" y="506" type="line"/>
      <point x="531" y="570" type="line"/>
    </contour>
    <component base="stem-short-deva" yOffset="1"/>
    <contour>
      <point x="324" y="-97" type="move" name="nukta"/>
    </contour>
    <contour>
      <point x="318" y="3" type="move" name="bottom"/>
    </contour>
    <contour>
      <point x="388" y="570" type="move" name="top"/>
    </contour>
  </outline>
</glyph>
<glyph name="na-deva" format="1">
  <advance width="517"/>
  <unicode hex="0928"/>
  <note>
    dNa
  </note>
  <outline>
    <contour>
      <point x="364" y="326" type="line"/>
      <point x="111" y="326" type="line"/>
      <point x="112" y="262" type="line"/>
      <point x="364" y="269" type="line"/>
    </contour>
    <contour>
      <point x="-30" y="570" type="line"/>
      <point x="-2" y="506" type="line"/>
      <point x="547" y="506" type="line"/>
      <point x="519" y="570" type="line"/>
    </contour>
    <component base="deva_knot" xOffset="1" yOffset="3"/>
    <component base="stem-deva"/>
    <contour>
      <point x="127" y="0" type="move" name="nukta"/>
    </contour>
    <contour>
      <point x="386" y="0" type="move" name="bottom"/>
    </contour>
    <contour>
      <point x="394" y="570" type="move" name="top"/>
    </contour>
  </outline>
</glyph>
<glyph name="pa-deva" format="1">
  <advance width="521"/>
  <unicode hex="092A"/>
  <note>
    dPa
  </note>
  <outline>
    <contour>
      <point x="-30" y="570" type="line"/>
      <point x="-2" y="506" type="line"/>
      <point x="551" y="506" type="line"/>
      <point x="523" y="570" type="line"/>
    </contour>
    <contour>
      <point x="393" y="345" type="line"/>
      <point x="356" y="246"/>
      <point x="289" y="199"/>
      <point x="219" y="199" type="curve" smooth="yes"/>
      <point x="181" y="199"/>
      <point x="154" y="228"/>
      <point x="154" y="275" type="curve" smooth="yes"/>
      <point x="154" y="441" type="line" smooth="yes"/>
      <point x="154" y="477"/>
      <point x="167" y="506"/>
      <point x="203" y="506" type="curve"/>
      <point x="82" y="506" type="line"/>
      <point x="78" y="480"/>
      <point x="75" y="461"/>
      <point x="75" y="426" type="curve" smooth="yes"/>
      <point x="75" y="370" type="line" smooth="yes"/>
      <point x="79" y="233"/>
      <point x="140" y="147"/>
      <point x="255" y="147" type="curve" smooth="yes"/>
      <point x="321" y="147"/>
      <point x="386" y="179"/>
      <point x="426" y="236" type="curve"/>
    </contour>
    <component base="stem-deva" xOffset="18"/>
    <contour>
      <point x="60" y="68" type="move" name="nukta"/>
    </contour>
    <contour>
      <point x="409" y="0" type="move" name="bottom"/>
    </contour>
    <contour>
      <point x="409" y="570" type="move" name="top"/>
    </contour>
  </outline>
</glyph>
<glyph name="ba-deva" format="1">
  <advance width="555"/>
  <unicode hex="092C"/>
  <note>
    dBa
  </note>
  <outline>
    <contour>
      <point x="156" y="390" type="line"/>
      <point x="130" y="354" type="line"/>
      <point x="306" y="106" type="line"/>
      <point x="331" y="142" type="line"/>
    </contour>
    <component base="va-deva"/>
    <contour>
      <point x="90" y="0" type="move" name="nukta"/>
    </contour>
    <contour>
      <point x="413" y="0" type="move" name="bottom"/>
    </contour>
    <contour>
      <point x="425" y="570" type="move" name="top"/>
    </contour>
  </outline>
</glyph>
<glyph name="bha-deva" format="1">
  <advance width="615"/>
  <unicode hex="092D"/>
  <note>
    dBha
  </note>
  <outline>
    <contour>
      <point x="645" y="506" type="line"/>
      <point x="617" y="570" type="line"/>
      <point x="328" y="570" type="line"/>
      <point x="356" y="506" type="line"/>
    </contour>
    <contour>
      <point x="266" y="178"/>
      <point x="270" y="199"/>
      <point x="272" y="237" type="curve" smooth="yes"/>
      <point x="275" y="290" type="line"/>
      <point x="241" y="326" type="line"/>
      <point x="170" y="326" type="line" smooth="yes"/>
      <point x="139" y="326"/>
      <point x="126" y="313"/>
      <point x="126" y="290" type="curve" smooth="yes"/>
      <point x="126" y="248"/>
      <point x="200" y="178"/>
      <point x="244" y="178" type="curve" smooth="yes"/>
    </contour>
    <contour>
      <point x="478" y="326" type="line"/>
      <point x="276" y="326" type="line"/>
      <point x="288" y="525"/>
      <point x="236" y="592"/>
      <point x="129" y="592" type="curve" smooth="yes"/>
      <point x="78" y="592"/>
      <point x="45" y="560"/>
      <point x="45" y="511" type="curve" smooth="yes"/>
      <point x="45" y="432"/>
      <point x="133" y="377"/>
      <point x="222" y="370" type="curve"/>
      <point x="226" y="413" type="line" smooth="yes"/>
      <point x="158" y="424"/>
      <point x="118" y="462"/>
      <point x="118" y="504" type="curve" smooth="yes"/>
      <point x="118" y="531"/>
      <point x="129" y="547"/>
      <point x="155" y="547" type="curve" smooth="yes"/>
      <point x="222" y="547"/>
      <point x="203" y="423"/>
      <point x="192" y="262" type="curve"/>
      <point x="478" y="268" type="line"/>
    </contour>
    <component base="stem-deva" xOffset="114"/>
    <contour>
      <point x="207" y="0" type="move" name="nukta"/>
    </contour>
    <contour>
      <point x="500" y="0" type="move" name="bottom"/>
    </contour>
    <contour>
      <point x="500" y="570" type="move" name="top"/>
    </contour>
  </outline>
</glyph>
<glyph name="ya-deva" format="1">
  <advance width="527"/>
  <unicode hex="092F"/>
  <note>
    dYa
  </note>
  <outline>
    <contour>
      <point x="125" y="522" type="line"/>
      <point x="200" y="405"/>
      <point x="163" y="335"/>
      <point x="44" y="300" type="curve"/>
      <point x="34" y="259" type="line"/>
      <point x="122" y="103"/>
      <point x="275" y="79"/>
      <point x="415" y="144" type="curve"/>
      <point x="394" y="245" type="line"/>
      <point x="303" y="180"/>
      <point x="154" y="169"/>
      <point x="108" y="254" type="curve"/>
      <point x="216" y="297"/>
      <point x="271" y="389"/>
      <point x="178" y="522" type="curve"/>
    </contour>
    <contour>
      <point x="-30" y="570" type="line"/>
      <point x="-2" y="506" type="line"/>
      <point x="557" y="506" type="line"/>
      <point x="529" y="570" type="line"/>
    </contour>
    <component base="stem-deva" xOffset="26"/>
    <contour>
      <point x="50" y="34" type="move" name="nukta"/>
    </contour>
    <contour>
      <point x="415" y="0" type="move" name="bottom"/>
    </contour>
    <contour>
      <point x="415" y="570" type="move" name="top"/>
    </contour>
  </outline>
</glyph>
<glyph name="la-deva" format="1">
  <advance width="687"/>
  <unicode hex="0932"/>
  <note>
    dLa
  </note>
  <outline>
    <contour>
      <point x="-30" y="570" type="line"/>
      <point x="-2" y="506" type="line"/>
      <point x="717" y="506" type="line"/>
      <point x="689" y="570" type="line"/>
    </contour>
    <contour>
      <point x="349" y="321"/>
      <point x="389" y="359"/>
      <point x="443" y="359" type="curve" smooth="yes"/>
      <point x="470" y="359"/>
      <point x="499" y="347"/>
      <point x="528" y="323" type="curve"/>
      <point x="543" y="349" type="line"/>
      <point x="505" y="396"/>
      <point x="462" y="419"/>
      <point x="414" y="419" type="curve" smooth="yes"/>
      <point x="326" y="419"/>
      <point x="253" y="329"/>
      <point x="241" y="225" type="curve"/>
      <point x="319" y="211" type="line"/>
    </contour>
    <contour>
      <point x="276" y="384"/>
      <point x="224" y="419"/>
      <point x="154" y="419" type="curve" smooth="yes"/>
      <point x="62" y="419"/>
      <point x="19" y="362"/>
      <point x="19" y="276" type="curve" smooth="yes"/>
      <point x="19" y="170"/>
      <point x="104" y="60"/>
      <point x="214" y="2" type="curve"/>
      <point x="235" y="41" type="line"/>
      <point x="154" y="96"/>
      <point x="113" y="170"/>
      <point x="113" y="266" type="curve" smooth="yes"/>
      <point x="113" y="319"/>
      <point x="145" y="359"/>
      <point x="185" y="359" type="curve" smooth="yes"/>
      <point x="224" y="359"/>
      <point x="262" y="344"/>
      <point x="300" y="318" type="curve"/>
      <point x="326" y="342" type="line"/>
    </contour>
    <component base="stem-deva" xOffset="158"/>
    <contour>
      <point x="17" y="0" type="move" name="nukta"/>
    </contour>
    <contour>
      <point x="547" y="0" type="move" name="bottom"/>
    </contour>
    <contour>
      <point x="557" y="570" type="move" name="top"/>
    </contour>
  </outline>
</glyph>
<glyph name="aiMatra-deva" format="1">
  <advance width="444"/>
  <unicode hex="0948"/>
  <outline>
    <contour>
      <point x="394" y="555" type="line"/>
      <point x="384" y="748"/>
      <point x="221" y="862"/>
      <point x="117" y="857" type="curve" smooth="yes"/>
      <point x="77" y="855"/>
      <point x="54" y="835"/>
      <point x="54" y="805" type="curve" smooth="yes"/>
      <point x="54" y="769"/>
      <point x="95" y="747"/>
      <point x="131" y="761" type="curve" smooth="yes"/>
      <point x="194" y="785"/>
      <point x="322" y="758"/>
      <point x="353" y="555" type="curve"/>
    </contour>
    <contour>
      <point x="384" y="555" type="line"/>
      <point x="304" y="700"/>
      <point x="189" y="732"/>
      <point x="107" y="717" type="curve" smooth="yes"/>
      <point x="77" y="712"/>
      <point x="60" y="690"/>
      <point x="60" y="669" type="curve" smooth="yes"/>
      <point x="60" y="639"/>
      <point x="89" y="613"/>
      <point x="133" y="629" type="curve" smooth="yes"/>
      <point x="217" y="659"/>
      <point x="282" y="649"/>
      <point x="353" y="555" type="curve"/>
    </contour>
    <contour>
      <point x="371" y="555" type="move" name="_top"/>
    </contour>
  </outline>
</glyph>
<glyph name="halant-deva" format="1">
  <advance width="250"/>
  <unicode hex="094D"/>
  <note>
    dHalant
  </note>
  <outline>
    <contour>
      <point x="310" y="-255" type="line"/>
      <point x="256" y="-135"/>
      <point x="161" y="-50"/>
      <point x="90" y="-50" type="curve" smooth="yes"/>
      <point x="57" y="-50"/>
      <point x="38" y="-70"/>
      <point x="38" y="-95" type="curve" smooth="yes"/>
      <point x="38" y="-120"/>
      <point x="57" y="-138"/>
      <point x="81" y="-139" type="curve" smooth="yes"/>
      <point x="150" y="-143"/>
      <point x="229" y="-185"/>
      <point x="275" y="-276" type="curve"/>
    </contour>
    <contour>
      <point x="125" y="0" type="move" name="_bottom"/>
    </contour>
  </outline>
</glyph>
<glyph name="aiMatra_reph-deva" format="1">
  <advance width="588"/>
  <outline>
    <contour>
      <point x="484" y="702"/>
      <point x="497" y="702" type="curve" smooth="yes"/>
      <point x="521" y="702"/>
      <point x="542" y="722"/>
      <point x="542" y="750" type="curve" smooth="yes"/>
      <point x="542" y="791"/>
      <point x="484" y="823"/>
      <point x="441" y="823" type="curve" smooth="yes"/>
      <point x="353" y="823"/>
      <point x="308" y="738"/>
      <point x="345" y="635" type="curve"/>
      <point x="372" y="659" type="line"/>
      <point x="340" y="742"/>
      <point x="420" y="793"/>
      <point x="463" y="722" type="curve" smooth="yes"/>
      <point x="472" y="708"/>
    </contour>
    <component base="aiMatra-deva"/>
    <contour>
      <point x="375" y="555" type="move" name="_top"/>
    </contour>
  </outline>
</glyph>
<glyph name="d_g_ra-deva" format="1">
  <advance width="529"/>
  <note>
    dDGRa
  </note>
  <outline>
    <contour>
      <point x="334" y="-211" type="line"/>
      <point x="380" y="-245" type="line"/>
      <point x="478" y="-65" type="line"/>
      <point x="441" y="-37" type="line"/>
    </contour>
    <component base="d_ga-deva"/>
  </outline>
</glyph>
<glyph name="eMatra_reph-deva" format="1">
  <advance width="614"/>
  <outline>
    <contour>
      <point x="431" y="596" type="line"/>
      <point x="364" y="741"/>
      <point x="438" y="759"/>
      <point x="513" y="733" type="curve" smooth="yes"/>
      <point x="543" y="723"/>
      <point x="561" y="751"/>
      <point x="561" y="775" type="curve" smooth="yes"/>
      <point x="561" y="805"/>
      <point x="529" y="822"/>
      <point x="480" y="822" type="curve" smooth="yes"/>
      <point x="405" y="822"/>
      <point x="326" y="756"/>
      <point x="382" y="635" type="curve"/>
    </contour>
    <component base="eMatra-deva"/>
    <contour>
      <point x="429" y="555" type="move" name="_top"/>
    </contour>
  </outline>
</glyph>
<glyph name="kh_ra-deva" format="1">
  <advance width="844"/>
  <note>
    dKhRa
  </note>
  <outline>
    <contour>
      <point x="718" y="252" type="line"/>
      <point x="476" y="-21" type="line"/>
      <point x="544" y="-62" type="line"/>
      <point x="718" y="170" type="line"/>
    </contour>
    <component base="ra-deva"/>
    <component base="va-deva" xOffset="289"/>
    <contour>
      <point x="712" y="570" type="move" name="top"/>
    </contour>
    <contour>
      <point x="710" y="0" type="move" name="bottom"/>
    </contour>
  </outline>
</glyph>
<glyph name="n_bha-deva" format="1">
  <advance width="772"/>
  <note>
    dNBha
  </note>
  <outline>
    <contour>
      <point x="134" y="506" type="line"/>
      <point x="106" y="570" type="line"/>
      <point x="-30" y="570" type="line"/>
      <point x="-2" y="506" type="line"/>
    </contour>
    <contour>
      <point x="379" y="347" type="line"/>
      <point x="376" y="379" type="line"/>
      <point x="130" y="379" type="line"/>
      <point x="158" y="335" type="line"/>
    </contour>
    <contour>
      <point x="609" y="326" type="line"/>
      <point x="414" y="326" type="line"/>
      <point x="416" y="356" type="line" smooth="yes"/>
      <point x="426" y="501"/>
      <point x="374" y="592"/>
      <point x="266" y="592" type="curve" smooth="yes"/>
      <point x="210" y="592"/>
      <point x="180" y="563"/>
      <point x="180" y="525" type="curve" smooth="yes"/>
      <point x="180" y="469"/>
      <point x="245" y="397"/>
      <point x="355" y="390" type="curve"/>
      <point x="359" y="433" type="line"/>
      <point x="291" y="443"/>
      <point x="249" y="477"/>
      <point x="249" y="514" type="curve" smooth="yes"/>
      <point x="249" y="538"/>
      <point x="261" y="550"/>
      <point x="284" y="550" type="curve" smooth="yes"/>
      <point x="351" y="550"/>
      <point x="336" y="428"/>
      <point x="325" y="262" type="curve"/>
      <point x="608" y="272" type="line"/>
    </contour>
    <component base="deva_knot" xOffset="31" yOffset="86" xScale="0.907" yScale="0.907"/>
    <component base="deva_knot" xOffset="231" yOffset="33" xScale="0.907" yScale="0.907"/>
    <component base="aaMatra-deva" xOffset="492"/>
    <contour>
      <point x="340" y="0" type="move" name="nukta"/>
    </contour>
    <contour>
      <point x="633" y="0" type="move" name="bottom"/>
    </contour>
    <contour>
      <point x="637" y="570" type="move" name="top"/>
    </contour>
  </outline>
</glyph>
<glyph name="n_ma-deva" format="1">
  <advance width="740"/>
  <note>
    dNMa
  </note>
  <outline>
    <contour>
      <point x="224" y="506" type="line"/>
      <point x="196" y="570" type="line"/>
      <point x="-30" y="570" type="line"/>
      <point x="-2" y="506" type="line"/>
    </contour>
    <contour>
      <point x="356" y="370" type="line"/>
      <point x="346" y="420" type="line"/>
      <point x="70" y="420" type="line"/>
      <point x="98" y="359" type="line"/>
    </contour>
    <component base="ma-deva" xOffset="213"/>
    <component base="deva_knot" xOffset="-9" yOffset="97"/>
    <contour>
      <point x="114" y="0" type="move" name="nukta"/>
    </contour>
    <contour>
      <point x="627" y="0" type="move" name="bottom"/>
    </contour>
    <contour>
      <point x="637" y="570" type="move" name="top"/>
    </contour>
  </outline>
</glyph>
<glyph name="sh_r_ya-deva" format="1">
  <advance width="883"/>
  <note>
    dShRYa
  </note>
  <outline>
    <contour>
      <point x="403" y="276" type="line"/>
      <point x="325" y="247"/>
      <point x="248" y="260"/>
      <point x="202" y="309" type="curve"/>
      <point x="292" y="364"/>
      <point x="325" y="406"/>
      <point x="325" y="464" type="curve" smooth="yes"/>
      <point x="325" y="540"/>
      <point x="264" y="594"/>
      <point x="193" y="594" type="curve" smooth="yes"/>
      <point x="57" y="594"/>
      <point x="40" y="445"/>
      <point x="112" y="332" type="curve"/>
      <point x="84" y="317"/>
      <point x="50" y="301"/>
      <point x="10" y="284" type="curve"/>
      <point x="35" y="218" type="line"/>
      <point x="81" y="241"/>
      <point x="121" y="262"/>
      <point x="154" y="281" type="curve"/>
      <point x="192" y="242"/>
      <point x="253" y="210"/>
      <point x="339" y="211" type="curve"/>
      <point x="100" y="44" type="line"/>
      <point x="158" y="-17" type="line"/>
      <point x="444" y="210" type="line"/>
      <point x="443" y="211" type="line"/>
    </contour>
    <contour>
      <point x="147" y="529"/>
      <point x="180" y="557"/>
      <point x="211" y="557" type="curve" smooth="yes"/>
      <point x="237" y="557"/>
      <point x="262" y="536"/>
      <point x="262" y="497" type="curve" smooth="yes"/>
      <point x="262" y="455"/>
      <point x="251" y="417"/>
      <point x="167" y="364" type="curve"/>
      <point x="154" y="394"/>
      <point x="147" y="431"/>
      <point x="147" y="473" type="curve" smooth="yes"/>
    </contour>
    <component base="ya-deva" xOffset="356"/>
  </outline>
</glyph>
<glyph name="stem_deva_conj" format="1">
  <advance width="600"/>
  <outline>
    <contour>
      <point x="353" y="506" type="line"/>
      <point x="350" y="480"/>
      <point x="348" y="461"/>
      <point x="348" y="426" type="curve" smooth="yes"/>
      <point x="348" y="-140" type="line"/>
      <point x="427" y="-174" type="line"/>
      <point x="427" y="441" type="line" smooth="yes"/>
      <point x="427" y="477"/>
      <point x="440" y="506"/>
      <point x="476" y="506" type="curve"/>
    </contour>
  </outline>
</glyph>
<glyph name="t_ra-deva.alt" format="1">
  <advance width="522"/>
  <note>
    dTRa.alt
  </note>
  <outline>
    <contour>
      <point x="193" y="176" type="line"/>
      <point x="241" y="138" type="line"/>
      <point x="383" y="315" type="line"/>
      <point x="342" y="348" type="line"/>
    </contour>
    <component base="t-deva"/>
    <component base="aaMatra-deva" xOffset="242"/>
  </outline>
</glyph>
<glyph name="tth_ya-deva" format="1">
  <advance width="954"/>
  <note>
    dTthYa
  </note>
  <outline>
    <contour>
      <point x="607" y="570" type="line"/>
      <point x="-30" y="570" type="line"/>
      <point x="-2" y="506" type="line"/>
      <point x="630" y="506" type="line"/>
    </contour>
    <contour>
      <point x="459" y="332"/>
      <point x="368" y="435"/>
      <point x="257" y="425" type="curve" smooth="yes"/>
      <point x="195" y="419" type="line" smooth="yes"/>
      <point x="67" y="408"/>
      <point x="14" y="334"/>
      <point x="21" y="260" type="curve" smooth="yes"/>
      <point x="28" y="170"/>
      <point x="119" y="72"/>
      <point x="288" y="87" type="curve" smooth="yes"/>
      <point x="406" y="98"/>
      <point x="475" y="151"/>
      <point x="467" y="240" type="curve" smooth="yes"/>
    </contour>
    <contour>
      <point x="157" y="135"/>
      <point x="91" y="163"/>
      <point x="85" y="230" type="curve" smooth="yes"/>
      <point x="81" y="285"/>
      <point x="120" y="338"/>
      <point x="210" y="345" type="curve" smooth="yes"/>
      <point x="306" y="354" type="line"/>
      <point x="366" y="359"/>
      <point x="396" y="325"/>
      <point x="400" y="280" type="curve" smooth="yes"/>
      <point x="407" y="199"/>
      <point x="323" y="150"/>
      <point x="236" y="142" type="curve" smooth="yes"/>
    </contour>
    <contour>
      <point x="396" y="435" type="line"/>
      <point x="244" y="424" type="line"/>
      <point x="352" y="362" type="line"/>
      <point x="432" y="366" type="line"/>
    </contour>
    <contour>
      <point x="343" y="506" type="line"/>
      <point x="337" y="481"/>
      <point x="336" y="461"/>
      <point x="336" y="426" type="curve" smooth="yes"/>
      <point x="336" y="400" type="line"/>
      <point x="415" y="391" type="line"/>
      <point x="415" y="441" type="line" smooth="yes"/>
      <point x="415" y="477"/>
      <point x="428" y="506"/>
      <point x="464" y="506" type="curve"/>
    </contour>
    <component base="ya-deva.post" xOffset="404"/>
  </outline>
</glyph>
